<?xml version="1.0" encoding="utf-8"?>
<svg xmlns="http://www.w3.org/2000/svg" viewBox="0 0 500 500">
  <path style="stroke: rgb(0, 0, 0); fill: rgb(85, 110, 218);" d="M 28.638 34.964 C 28.638 54.803 22.741 74.255 23.406 94.173 C 24.027 112.791 27.995 131.162 28.638 149.822 C 29.014 160.72 27.629 171.903 28.638 182.765 C 30.013 197.558 36.629 211.398 37.201 226.393 C 37.777 241.461 34.879 255.975 34.347 270.911 C 33.701 289.024 35.49 307.12 34.823 325.223 C 34.15 343.492 31.866 361.723 31.018 379.981 C 29.875 404.578 37.885 427.265 55.279 445.867 C 60.117 451.042 73.892 460.531 82.396 456.552 C 85.57 455.067 85.403 451.696 85.725 448.985 C 86.406 443.244 88.423 437.626 90.007 432.067 C 94.033 417.938 92.091 404.203 92.861 389.774 C 93.648 375.045 94.988 358.507 99.521 344.366 C 102.996 333.527 109.259 313.064 125.686 315.43 C 143.565 318.003 144.122 348.298 146.142 360.393 C 150.198 384.686 152.769 409.175 157.084 433.403 C 158.841 443.268 160.687 456.724 170.404 462.785 C 179.969 468.753 193.659 465.704 203.704 463.231 C 209.495 461.804 215.848 460.737 221.306 458.333 C 235.293 452.173 229.999 436.037 230.82 424.5 C 231.256 418.385 231.772 412.402 231.772 406.247 C 231.772 390.298 232.667 374.09 231.772 358.166 C 230.625 337.784 225.847 317.452 221.306 297.623 C 219.208 288.461 216.319 279.919 213.695 270.911 C 212.184 265.73 212.861 259.049 209.414 254.439 C 205.623 249.373 198.632 245.75 192.763 243.309 C 170.145 233.903 153.229 239.655 131.395 247.316 C 126.658 248.979 123.219 251.64 119.026 253.995 C 118.091 254.519 115.235 257.11 114.269 257.11 C 112.461 257.11 113.476 253.797 112.841 252.214 C 111.665 249.278 110.395 245.895 109.512 242.865 C 103.901 223.612 107.527 205.672 108.56 186.326 C 109.853 162.138 113.318 137.971 113.318 113.761 C 113.318 100.176 113.368 85.661 108.084 72.805 C 104.989 65.272 99.964 58.653 94.764 52.326 C 87.601 43.612 82.341 33.315 70.502 29.622 C 60.497 26.501 48.373 33.183 38.153 33.183 C 34.317 33.183 29.115 31.896 29.115 36.3"/>
  <path style="stroke: rgb(0, 0, 0); fill: rgb(85, 110, 218);" d="M 338.81 245.98 C 338.81 252.843 336.818 259.606 335.955 266.458 C 332.737 292.066 326.198 317.08 322.16 342.585 C 318.049 368.554 321.208 393.333 328.82 418.266 C 331.481 426.982 331.301 437.704 339.762 443.642 C 341.007 444.516 344.53 444.291 345.946 444.532 C 353.705 445.852 361.432 445.482 369.256 445.868 C 383.531 446.571 400.123 447.151 410.644 436.073 C 419.631 426.613 421.435 415.299 425.392 403.575 C 428.125 395.474 432.089 387.709 432.528 379.09 C 433.329 363.351 428.614 344.972 423.014 330.12 C 417.952 316.7 408.51 305.162 403.033 291.834 C 398.505 280.819 396.991 268.773 393.995 257.555 C 393.226 254.683 390.309 252.969 388.761 250.432 C 384.237 243.023 376.258 235.115 367.83 231.735 C 363.389 229.954 350.733 231.234 348.325 235.741 C 345.933 240.218 342.706 250.432 337.383 250.432"/>
  <path style="stroke: rgb(0, 0, 0); fill: rgb(218, 99, 85);" d="M 340.237 98.625 C 340.237 84.633 352.696 70.647 361.169 60.339 C 364.775 55.953 368.649 51.571 371.159 46.538 C 371.76 45.336 372.476 44.185 373.062 42.977 C 373.1 42.899 373.944 39.539 374.49 40.306 C 377.091 43.957 377.818 51.282 378.771 55.442 C 380.558 63.243 383.88 71.006 385.907 78.592 C 386.61 81.225 384.536 88.857 387.333 90.166 C 390.082 91.453 397.673 88.139 400.655 87.94 C 411.35 87.225 421.847 87.617 432.528 88.386 C 434.185 88.505 447.065 88.737 447.751 91.947 C 450.382 104.26 423.537 109.219 415.877 111.09 C 412.714 111.862 409.534 112.574 406.363 113.315 C 405.711 113.468 387.908 115.634 392.091 119.548 C 399.301 126.295 410.558 129.726 418.732 135.575 C 430.671 144.12 438.105 156.783 444.896 168.964 C 450.391 178.818 456.689 192.879 444.896 201.462 C 434.487 209.038 426.579 190.623 421.111 184.545 C 408.66 170.71 392.762 160.76 378.771 148.486 C 373.584 143.934 365.691 134.729 358.314 133.349 C 356.197 132.953 355.714 134.803 355.46 136.465 C 354.467 142.974 352.227 148.541 349.752 154.718 C 344.364 168.163 338.368 178.274 328.82 189.442 C 324.329 194.696 319.262 200.45 311.693 201.462 C 307.815 201.98 309.905 194.142 310.267 192.113 C 312.077 181.95 311.534 172.195 316.927 162.731 C 320.14 157.093 325.362 152.748 329.295 147.595 C 329.735 147.02 332.122 143.561 331.198 142.698 C 330.817 142.341 325.248 145.994 324.538 146.259 C 319.354 148.201 313.414 148.672 307.888 148.93 C 288.548 149.836 264.601 142.617 256.51 124.445 C 248.275 105.95 277.36 97.3 290.762 95.508 C 290.762 95.508 301.228 94.618 301.228 94.618 C 305.505 94.444 309.791 94.618 314.073 94.618 C 320.413 94.618 326.767 94.851 333.101 95.063 C 340.46 95.309 348.774 95.279 355.936 97.289 C 356.451 97.433 362.596 99.07 362.596 99.07 C 362.596 99.07 361.008 99.137 360.217 99.07 C 355.912 98.703 351.699 98.179 347.374 98.179"/>
</svg>